<svg xmlns="http://www.w3.org/2000/svg" version="1.1" xmlns:xlink="http://www.w3.org/1999/xlink" xmlns:svgjs="http://svgjs.dev/svgjs" width="1500" height="1500" viewBox="0 0 1500 1500"><rect width="1500" height="1500" fill="#ffffff"></rect><g transform="matrix(0.6666666666666666,0,0,0.6666666666666666,249.78425655976667,249.78425655976673)"><svg viewBox="0 0 343 343" data-background-color="#efddd9" preserveAspectRatio="xMidYMid meet" height="1500" width="1500" xmlns="http://www.w3.org/2000/svg" xmlns:xlink="http://www.w3.org/1999/xlink"><g id="tight-bounds" transform="matrix(1,0,0,1,0.0740000000000407,0.07400000000001228)"><svg viewBox="0 0 342.85155851775386 342.85155851775386" height="342.85155851775386" width="342.85155851775386"><g><svg></svg></g><g><svg viewBox="0 0 342.85155851775386 342.85155851775386" height="342.85155851775386" width="342.85155851775386"><g><path d="M0 171.426c0-94.676 76.75-171.426 171.426-171.426 94.676 0 171.426 76.75 171.426 171.426 0 94.676-76.75 171.426-171.426 171.426-94.676 0-171.426-76.75-171.426-171.426zM171.426 339.935c93.065 0 168.509-75.444 168.509-168.509 0-93.065-75.444-168.509-168.509-168.509-93.065 0-168.509 75.444-168.509 168.509 0 93.065 75.444 168.509 168.509 168.509z" data-fill-palette-color="tertiary" fill="#000000" stroke="transparent"></path><ellipse rx="164.56874808852186" ry="164.56874808852186" cx="171.42577925887693" cy="171.42577925887693" fill="#000000" stroke="transparent" stroke-width="0" fill-opacity="1" data-fill-palette-color="tertiary"></ellipse></g><g transform="matrix(1,0,0,1,64.84655864529837,129.08595478944164)"><svg viewBox="0 0 213.1584412271571 84.67964893887057" height="84.67964893887057" width="213.1584412271571"><g><svg viewBox="0 0 213.1584412271571 84.67964893887057" height="84.67964893887057" width="213.1584412271571"><g><svg viewBox="0 0 213.1584412271571 84.67964893887057" height="84.67964893887057" width="213.1584412271571"><g transform="matrix(1,0,0,1,0,52.33542022325247)"><svg viewBox="0 0 213.1584412271571 32.344228715618094" height="32.344228715618094" width="213.1584412271571"><g id="textblocktransform"><svg viewBox="0 0 213.1584412271571 32.344228715618094" height="32.344228715618094" width="213.1584412271571" id="textblock"><g><svg viewBox="0 0 213.1584412271571 32.344228715618094" height="32.344228715618094" width="213.1584412271571"><g transform="matrix(1,0,0,1,0,0)"><svg width="213.1584412271571" viewBox="-5 -32.95 224.38 34.050000000000004" height="32.344228715618094" data-palette-color="#2a2928"><path d="M6.15 1.1L5.1 0.85Q6.3-4.6 6.3-14.83 6.3-25.05 5.85-29.9L5.85-29.9Q0.3-29.8-1.25-28.3L-1.25-28.3Q-1.6-27.6-1.6-26.1-1.6-24.6-1.1-24.05L-1.1-24.05-1.15-23.7Q-2.4-22.95-3.65-21.6L-3.65-21.6Q-4.25-21.65-4.63-22.1-5-22.55-5-23.15L-5-23.15Q-5-25.45-2.38-28.6 0.25-31.75 2.65-32.95L2.65-32.95Q6.9-32.55 15.25-32.55L15.25-32.55Q28.9-32.55 28.9-19.3L28.9-19.3Q28.9-12.35 25.25-6.7 21.6-1.05 15.35 0.75L15.35 0.75Q11.75 0.75 7.3-1.15L7.3-1.15Q6.45 0.15 6.15 1.1L6.15 1.1ZM14.45-30.2L14.45-30.2Q12.15-30.2 10.6-29.95L10.6-29.95Q10.15-25.25 10.15-16.95 10.15-8.65 10.4-4.25L10.4-4.25Q13.1-2.85 16.55-2.85 20-2.85 21.9-4.55L21.9-4.55Q24.45-9.2 24.45-16.05 24.45-22.9 22.33-26.55 20.2-30.2 14.45-30.2ZM37.55-12.35Q37.7-7.9 39.2-5.4 40.7-2.9 44.3-2.9 47.9-2.9 50.95-5.95L50.95-5.95 51.65-5.25Q48.3-1 43.6 0.6L43.6 0.6Q38.75 0.6 36-2.48 33.25-5.55 33.25-10.78 33.25-16 36.5-20.6 39.75-25.2 44.8-26.65L44.8-26.65Q48.45-26.65 53.05-25.9L53.05-25.9 53-24.8Q52.05-24.8 51.2-24.45L51.2-24.45Q50.25-22.2 49.95-19.1L49.95-19.1 48.7-19.1Q48.3-20.8 48.3-22.6L48.3-22.6Q46.4-23.55 43.8-23.55 41.2-23.55 39.5-22.15L39.5-22.15Q37.8-19.05 37.55-14.75L37.55-14.75Q39.65-14.4 42.05-14.4L42.05-14.4Q46.2-14.4 47.05-16.15L47.05-16.15 48.1-16Q47.65-14.5 47.65-13.05 47.65-11.6 48-9.5L48-9.5 46.8-9.3Q46.25-10.8 46-12.4L46-12.4Q44-12.6 42.02-12.6 40.05-12.6 37.55-12.35L37.55-12.35ZM71.3-0.8L71.05 0.3Q68.9 0 65.67 0 62.45 0 61 0.2L61 0.2 60.85-0.6Q61.3-0.7 61.72-1.13 62.15-1.55 62.15-1.9L62.15-1.9Q62.15-4.75 56.9-21.15L56.9-21.15Q56.2-23.35 55.7-24.35L55.7-24.35Q54.05-24.55 52.1-25.15L52.1-25.15 52.3-26.45Q54.3-26.05 58.05-26.05 61.8-26.05 64.2-26.45L64.2-26.45 64.4-25.2Q61.7-24.6 60.7-24.45L60.7-24.45Q61.05-21.15 62.77-14.7 64.5-8.25 66.5-2.75L66.5-2.75Q69.84-10.2 70.97-14.05 72.09-17.9 72.09-21.1 72.09-24.3 70.05-25.4L70.05-25.4 70.25-26.25Q71.75-26 74.07-26 76.4-26 79.3-26.4L79.3-26.4 79.5-25.1Q77.8-24.55 76.3-24.3L76.3-24.3Q76.5-22.8 76.5-21.58 76.5-20.35 76.12-18.63 75.75-16.9 74.4-13.9L74.4-13.9Q72.65-10.2 68.09-1.65L68.09-1.65Q69.09-1.55 71.3-0.8L71.3-0.8ZM85.39-12.35Q85.54-7.9 87.04-5.4 88.54-2.9 92.14-2.9 95.74-2.9 98.79-5.95L98.79-5.95 99.49-5.25Q96.14-1 91.44 0.6L91.44 0.6Q86.59 0.6 83.84-2.48 81.09-5.55 81.09-10.78 81.09-16 84.34-20.6 87.59-25.2 92.64-26.65L92.64-26.65Q96.29-26.65 100.89-25.9L100.89-25.9 100.84-24.8Q99.89-24.8 99.04-24.45L99.04-24.45Q98.09-22.2 97.79-19.1L97.79-19.1 96.54-19.1Q96.14-20.8 96.14-22.6L96.14-22.6Q94.24-23.55 91.64-23.55 89.04-23.55 87.34-22.15L87.34-22.15Q85.64-19.05 85.39-14.75L85.39-14.75Q87.49-14.4 89.89-14.4L89.89-14.4Q94.04-14.4 94.89-16.15L94.89-16.15 95.94-16Q95.49-14.5 95.49-13.05 95.49-11.6 95.84-9.5L95.84-9.5 94.64-9.3Q94.09-10.8 93.84-12.4L93.84-12.4Q91.84-12.6 89.87-12.6 87.89-12.6 85.39-12.35L85.39-12.35ZM121.94-0.45L121.69 0.55Q118.44 0 112.87 0 107.29 0 103.54 0.5L103.54 0.5 103.39-0.75Q104.79-1.3 106.59-1.65L106.59-1.65Q107.09-4.65 107.09-11.85L107.09-11.85 107.09-14.2Q107.09-20.4 106.59-24.4L106.59-24.4Q104.94-24.65 103.44-25.15L103.44-25.15 103.64-26.45Q106.19-26.05 109.64-26.05 113.09-26.05 115.54-26.45L115.54-26.45 115.69-25.2Q113.44-24.65 111.24-24.4L111.24-24.4Q110.84-21.7 110.84-13.28 110.84-4.85 111.24-2.05L111.24-2.05Q112.44-1.85 114.64-1.85 116.84-1.85 118.59-2.7L118.59-2.7Q119.29-4.4 119.29-6.7L119.29-6.7 120.54-6.7Q120.74-2.85 121.94-0.45L121.94-0.45ZM134.74 0.6Q129.79 0.6 126.74-2.53 123.69-5.65 123.69-10.9 123.69-16.15 126.89-20.75 130.09-25.35 135.24-26.65L135.24-26.65Q140.39-26.65 143.09-23.73 145.79-20.8 145.79-15.4 145.79-10 142.86-5.65 139.94-1.3 134.74 0.6L134.74 0.6ZM133.89-23.6L133.89-23.6Q131.64-23.6 129.99-22.35L129.99-22.35Q127.94-18.85 127.94-13.55L127.94-13.55Q127.94-7.45 131.34-4.2L131.34-4.2Q133.14-2.45 135.59-2.45 138.04-2.45 139.54-3.75L139.54-3.75Q141.54-7.25 141.54-12.3 141.54-17.35 139.74-20.48 137.94-23.6 133.89-23.6ZM150.04-24.7L150.04-25.95 161.64-26.3Q170.69-26.3 170.69-19.75L170.69-19.75Q170.69-16.1 167.46-13.85 164.24-11.6 160.14-11.6L160.14-11.6Q159.54-11.6 159.29-11.65L159.29-11.65 159.49-13.3 159.94-13.3Q163.04-13.3 164.56-14.65 166.09-16 166.09-18.9 166.09-21.8 164.86-23.18 163.64-24.55 160.94-24.55L160.94-24.55Q159.29-24.55 157.84-24L157.84-24Q157.49-20.7 157.49-12.8 157.49-4.9 157.94-1.65L157.94-1.65Q160.04-1.4 162.34-0.85L162.34-0.85 162.19 0.4Q159.74 0 156.29 0 152.84 0 150.29 0.4L150.29 0.4 150.09-0.9Q151.59-1.4 153.24-1.65L153.24-1.65Q153.74-5.15 153.74-12.58 153.74-20 153.29-24.05L153.29-24.05Q151.54-24.7 150.04-24.7L150.04-24.7ZM177.43-12.35Q177.58-7.9 179.08-5.4 180.58-2.9 184.18-2.9 187.78-2.9 190.83-5.95L190.83-5.95 191.53-5.25Q188.18-1 183.48 0.6L183.48 0.6Q178.63 0.6 175.88-2.48 173.13-5.55 173.13-10.78 173.13-16 176.38-20.6 179.63-25.2 184.68-26.65L184.68-26.65Q188.33-26.65 192.93-25.9L192.93-25.9 192.88-24.8Q191.93-24.8 191.08-24.45L191.08-24.45Q190.13-22.2 189.83-19.1L189.83-19.1 188.58-19.1Q188.18-20.8 188.18-22.6L188.18-22.6Q186.28-23.55 183.68-23.55 181.08-23.55 179.38-22.15L179.38-22.15Q177.68-19.05 177.43-14.75L177.43-14.75Q179.53-14.4 181.93-14.4L181.93-14.4Q186.08-14.4 186.93-16.15L186.93-16.15 187.98-16Q187.53-14.5 187.53-13.05 187.53-11.6 187.88-9.5L187.88-9.5 186.68-9.3Q186.13-10.8 185.88-12.4L185.88-12.4Q183.88-12.6 181.91-12.6 179.93-12.6 177.43-12.35L177.43-12.35ZM195.43-24.95L195.43-25.95 206.93-26.3Q211.43-26.3 213.68-24.98 215.93-23.65 215.93-20.15L215.93-20.15Q215.93-17.75 214.46-15.9 212.98-14.05 210.58-13.15L210.58-13.15 216.18-1.7Q217.88-1.4 219.38-1L219.38-1 219.18 0.35Q217.08 0 214.46 0 211.83 0 210.33 0.25L210.33 0.25 210.13-0.55Q210.78-1.2 210.78-2.7L210.78-2.7Q210.78-5.75 207.28-12.5L207.28-12.5Q206.23-12.7 204.83-12.7L204.83-12.7 204.93-14.15 205.43-14.15Q211.33-14.15 211.33-19.55L211.33-19.55Q211.33-24.55 206.28-24.55L206.28-24.55Q204.58-24.55 203.23-24L203.23-24Q202.88-20.7 202.88-12.7 202.88-4.7 203.33-1.65L203.33-1.65Q205.53-1.4 207.43-0.9L207.43-0.9 207.28 0.35Q204.68 0 201.46 0 198.23 0 195.68 0.4L195.68 0.4 195.48-0.9Q196.88-1.35 198.63-1.65L198.63-1.65Q199.13-5.4 199.13-13.33 199.13-21.25 198.68-24.3L198.68-24.3Q196.73-24.95 195.43-24.95L195.43-24.95Z" opacity="1" transform="matrix(1,0,0,1,0,0)" fill="#ffffff" class="wordmark-text-0" data-fill-palette-color="quaternary" id="text-0"></path></svg></g></svg></g></svg></g></svg></g><g transform="matrix(1,0,0,1,72.22071519241806,0)"><svg viewBox="0 0 68.717010842321 44.69972408498421" height="44.69972408498421" width="68.717010842321"><g><svg xmlns="http://www.w3.org/2000/svg" xmlns:xlink="http://www.w3.org/1999/xlink" version="1.1" x="0" y="0" viewBox="5.9 129.5 89.62475304077105 58.30000000000001" enable-background="new 0 107.3 100 100" xml:space="preserve" height="44.69972408498421" width="68.717010842321" class="icon-icon-0" data-fill-palette-color="quaternary" id="icon-0"><path d="M71.8 174.8c0-3-2.3-4.4-5.2-4.4H49.9L43.2 152l0 0c-1-3.2-4-5.6-7.6-5.6-1.3 0-2.5 0.3-3.6 0.9l0 0C17.5 154.5 9.1 168 5.9 187.7l19 0c0.5-8.3 2-18 8.8-23.8l7.8 11.7 0 0c0.9 1.7 2.7 3 4.7 3h20.3C69.6 178.5 71.8 177.7 71.8 174.8z" fill="#ffffff" data-fill-palette-color="quaternary"></path><path d="M84.7 187.8H67.5c-1.9 0-3.5-1.6-3.5-3.5s1.6-3.5 3.5-3.5h14.7l6.5-18.5c0.6-1.8 2.6-2.8 4.5-2.1 1.8 0.6 2.8 2.6 2.1 4.5L88 185.5C87.5 186.9 86.2 187.8 84.7 187.8z" fill="#ffffff" data-fill-palette-color="quaternary"></path><path fill="#ffffff" d="M51.7 129.5c-2.5 0-4.8 0.9-6.5 2.4-0.9-1.5-2.5-2.4-4.4-2.4-2.9 0-5.2 2.3-5.2 5.2s2.3 5.2 5.2 5.2c0.3 0 0.6 0 0.9-0.1 0.2 5.4 4.6 9.6 10 9.6 5.5 0 10-4.5 10-10S57.2 129.5 51.7 129.5z" data-fill-palette-color="quaternary"></path></svg></g></svg></g><g></g></svg></g></svg></g></svg></g></svg></g><defs></defs></svg><rect width="342.85155851775386" height="342.85155851775386" fill="none" stroke="none" visibility="hidden"></rect></g></svg></g></svg>